<svg xmlns="http://www.w3.org/2000/svg" width="18.105" height="7.2" fill="none" overflow="visible"><path d="M 1.948 6.896 L 0.302 5.229 C 0.108 5.035 0.007 4.802 0 4.531 C -0.007 4.26 0.087 4.028 0.281 3.833 C 1.378 2.653 2.677 1.719 4.177 1.031 C 5.677 0.344 7.302 0 9.052 0 C 10.802 0 12.427 0.344 13.927 1.031 C 15.427 1.719 16.726 2.653 17.823 3.833 C 18.017 4.028 18.111 4.26 18.104 4.531 C 18.097 4.802 17.997 5.035 17.802 5.229 L 16.156 6.896 C 16.003 7.049 15.809 7.146 15.573 7.188 C 15.337 7.229 15.101 7.167 14.865 7 L 12.469 5.292 C 12.344 5.194 12.243 5.073 12.167 4.927 C 12.09 4.781 12.052 4.634 12.052 4.486 L 12.052 1.958 C 11.566 1.806 11.075 1.691 10.578 1.615 C 10.082 1.538 9.573 1.5 9.052 1.5 C 8.531 1.5 8.022 1.538 7.526 1.615 C 7.029 1.691 6.538 1.806 6.052 1.958 L 6.052 4.486 C 6.052 4.634 6.014 4.781 5.938 4.927 C 5.861 5.073 5.76 5.194 5.635 5.292 L 3.24 7 C 3.003 7.167 2.764 7.226 2.521 7.177 C 2.278 7.128 2.087 7.035 1.948 6.896 Z M 4.552 2.5 C 4.038 2.75 3.542 3.049 3.062 3.396 C 2.583 3.743 2.128 4.118 1.698 4.521 L 2.719 5.542 L 4.552 4.229 Z M 13.552 2.5 L 13.552 4.229 L 15.385 5.542 L 16.406 4.521 C 15.976 4.104 15.524 3.726 15.052 3.385 C 14.58 3.045 14.08 2.75 13.552 2.5 Z M 4.552 2.5 Z M 13.552 2.5 Z" fill="rgba(255, 255, 255, 0.8)"></path></svg>