<svg xmlns="http://www.w3.org/2000/svg" width="13" height="13" fill="none"><path d="M 2.925 10.4 C 2.657 10.4 2.427 10.304 2.236 10.113 C 2.045 9.922 1.95 9.693 1.95 9.424 L 1.95 3.571 C 1.95 3.303 2.045 3.074 2.236 2.884 C 2.427 2.695 2.657 2.6 2.925 2.6 L 10.075 2.6 C 10.343 2.6 10.573 2.696 10.764 2.887 C 10.955 3.078 11.05 3.307 11.05 3.576 L 11.05 9.429 C 11.05 9.697 10.955 9.926 10.764 10.116 C 10.573 10.305 10.343 10.4 10.075 10.4 Z M 2.925 9.425 L 10.075 9.425 L 10.075 3.575 L 2.925 3.575 Z M 3.972 8.017 L 5.486 8.017 C 5.629 8.017 5.751 7.968 5.85 7.871 C 5.949 7.773 5.999 7.653 5.999 7.509 L 5.999 7.001 L 5.239 7.001 L 5.239 7.258 L 4.225 7.258 L 4.225 5.742 L 5.241 5.742 L 5.241 5.999 L 5.999 5.999 L 5.999 5.486 C 5.999 5.34 5.951 5.22 5.855 5.126 C 5.759 5.031 5.64 4.983 5.498 4.983 L 3.968 4.983 C 3.823 4.983 3.704 5.032 3.609 5.128 C 3.514 5.225 3.467 5.345 3.467 5.487 L 3.467 7.505 C 3.467 7.647 3.515 7.768 3.612 7.868 C 3.709 7.967 3.829 8.017 3.972 8.017 Z M 7.509 8.017 L 9.033 8.017 C 9.177 8.017 9.296 7.968 9.391 7.871 C 9.486 7.773 9.533 7.653 9.533 7.509 L 9.533 7.001 L 8.773 7.001 L 8.773 7.258 L 7.759 7.258 L 7.759 5.742 L 8.775 5.742 L 8.775 5.999 L 9.533 5.999 L 9.533 5.486 C 9.533 5.34 9.485 5.22 9.388 5.126 C 9.291 5.031 9.171 4.983 9.028 4.983 L 7.514 4.983 C 7.371 4.983 7.249 5.032 7.15 5.128 C 7.051 5.225 7.001 5.345 7.001 5.487 L 7.001 7.505 C 7.001 7.647 7.05 7.768 7.147 7.868 C 7.244 7.967 7.365 8.017 7.509 8.017 Z M 2.925 9.425 L 2.925 3.575 Z" fill="rgba(255, 255, 255, 0.8)"></path></svg>