<svg xmlns="http://www.w3.org/2000/svg" width="7.15" height="9.75" fill="none" overflow="visible"><path d="M 3.575 6.5 C 3.124 6.5 2.74 6.342 2.424 6.026 C 2.108 5.71 1.95 5.326 1.95 4.875 L 1.95 1.625 C 1.95 1.174 2.108 0.79 2.424 0.474 C 2.74 0.158 3.124 0 3.575 0 C 4.026 0 4.41 0.158 4.726 0.474 C 5.042 0.79 5.2 1.174 5.2 1.625 L 5.2 4.875 C 5.2 5.326 5.042 5.71 4.726 6.026 C 4.41 6.342 4.026 6.5 3.575 6.5 Z M 3.575 3.25 M 3.088 9.75 L 3.088 8.409 C 2.196 8.291 1.458 7.898 0.875 7.231 C 0.292 6.563 0 5.778 0 4.875 L 0.975 4.875 C 0.975 5.594 1.229 6.208 1.736 6.714 C 2.244 7.221 2.858 7.475 3.578 7.475 C 4.298 7.475 4.911 7.221 5.417 6.714 C 5.922 6.208 6.175 5.594 6.175 4.875 L 7.15 4.875 C 7.15 5.778 6.858 6.563 6.275 7.231 C 5.692 7.898 4.954 8.291 4.063 8.409 L 4.063 9.75 Z M 3.575 5.525 C 3.759 5.525 3.914 5.463 4.038 5.338 C 4.163 5.214 4.225 5.059 4.225 4.875 L 4.225 1.625 C 4.225 1.441 4.163 1.286 4.038 1.162 C 3.914 1.037 3.759 0.975 3.575 0.975 C 3.391 0.975 3.236 1.037 3.112 1.162 C 2.987 1.286 2.925 1.441 2.925 1.625 L 2.925 4.875 C 2.925 5.059 2.987 5.214 3.112 5.338 C 3.236 5.463 3.391 5.525 3.575 5.525 Z" fill="rgba(255, 255, 255, 0.8)"></path></svg>