<svg xmlns="http://www.w3.org/2000/svg" width="13" height="13" fill="none"><path d="M 2.925 10.4 C 2.663 10.4 2.435 10.303 2.241 10.109 C 2.047 9.915 1.95 9.687 1.95 9.425 L 1.95 3.575 C 1.95 3.307 2.047 3.077 2.241 2.886 C 2.435 2.695 2.663 2.6 2.925 2.6 L 8.775 2.6 C 9.043 2.6 9.273 2.695 9.464 2.886 C 9.655 3.077 9.75 3.307 9.75 3.575 L 9.75 5.85 L 11.7 3.9 L 11.7 9.1 L 9.75 7.15 L 9.75 9.425 C 9.75 9.687 9.655 9.915 9.464 10.109 C 9.273 10.303 9.043 10.4 8.775 10.4 Z M 2.925 9.425 L 8.775 9.425 L 8.775 3.575 L 2.925 3.575 Z M 2.925 9.425 L 2.925 3.575 Z" fill="rgba(255, 255, 255, 0.8)"></path></svg>